<svg id="Calque_1" data-name="Calque 1" xmlns="http://www.w3.org/2000/svg" viewBox="0 0 732.45 559.47"><defs><style>.cls-1{fill:#e20613;}.cls-2{fill:#c00;}.cls-3{fill:none;}.cls-4{fill:#339;}</style></defs><path d="M341.42,383.46c-2.1-9-6-13.57-14.12-13.57-17.65,0-26.59,29.68-26.59,48.66,0,12.79,5,20.52,15.78,20.52,7.5,0,16.66-4.75,23.83-11.59a19.77,19.77,0,0,1,1.54,6c0,8.16-17.21,16.66-32.76,16.66-18.43,0-26-10.92-26-30.34,0-29.79,22.06-58.91,50-58.91,10.48,0,18.75,3.31,18.75,11.14C351.79,377.07,347.71,380.71,341.42,383.46Z" transform="translate(-274.12 -133.6)"/><path d="M516.48,363c3.68-1.87,9.11-1.89,10.17-2,2-.23,5.07.11,4.52,3-.44,2.57-1.66,8.25-3,13.93-5.41,23.95-8.38,47.35-8.38,54.81a24.73,24.73,0,0,0,3.31,12.15c-1.44.89-8,4.57-12.47,4.57-4.08,0-6.62-1.68-6.84-6.91,0-6.91,5.52-36.88,7.17-51.92-1,1.34-2,2.79-3.09,4.46-10.37,16.26-20.85,33.09-24.82,42.22-2.43,2.23-5.3,4.12-9.38,4.12-2.09,0-3.2-1.44-3.86-4.23-1-4.46-5.85-27.74-9.16-43.45a16.24,16.24,0,0,0-.66-2.34c-.55,1.67-.88,3.46-1.32,5.13-5.3,19.72-9.71,38-9.71,43.78a15.68,15.68,0,0,0,1.43,6.91,31.13,31.13,0,0,1-10,2c-4.63,0-6.73-1.67-6.95-4.9a23.57,23.57,0,0,1,.89-5.57c1.32-5.12,11.36-40.11,13.24-47.35,1.76-6.79,3.53-13.59,5.4-20.39a7.23,7.23,0,0,1,0-2.5c.58-3.63,3.87-6.18,6.78-7.15a16.71,16.71,0,0,1,3.62-.48c3-.23,6,1.78,6.29,4.79.88,8.35,5.29,30.74,9.71,51.69.33,1.45.77,3,1.21,4.34a27,27,0,0,0,2.32-3.34C492.93,401.81,510.54,366,516.48,363Z" transform="translate(-274.12 -133.6)"/><path d="M538.78,449.22c-3.64,0-5.63-1.34-5.63-3.9a13.09,13.09,0,0,1,1.77-5.79c8.05-14.81,18.75-32.95,29.23-50.66,4.31-7.34,9.38-15.58,14.35-24.71a19.13,19.13,0,0,1,13.79-3.79c3.09.34,4.74,3,5,7.91,0,2.56,0,5.68.11,9.24,0,3.78.33,7,.33,9.8.33,3.89,1.33,24.71,1.55,28.38a131.18,131.18,0,0,0,2.31,18.6c1.11,5.23,2.65,8.9,5.19,11.24a20.5,20.5,0,0,1-13.68,3.68c-3.86-.34-6.4-3.46-7.39-10.92-1-6.12-1.22-12.13-1.77-18.25a7.58,7.58,0,0,1-5.07,1.55q-9.11.34-17.87.34a10.54,10.54,0,0,0-5.19,5.12,74.14,74.14,0,0,0-4.63,8.91c-1.44,3.56-3,7.57-2.1,11.35A29.28,29.28,0,0,1,538.78,449.22Zm44.79-37.08c-.11-9.24-.88-27.16-1.54-35.85-5.08,9.47-12,22.27-19.31,36.19h18.09A18.74,18.74,0,0,0,583.57,412.14Z" transform="translate(-274.12 -133.6)"/><path d="M678.11,440.5a15.33,15.33,0,0,0,1.11,6.07c-2.76,1.76-7.61,2.87-12,2.87-4.63,0-6.62-1.77-6.62-4.86a43.37,43.37,0,0,1,1.44-9.27c5.07-20.52,9.71-38.83,12.24-52.95a44.41,44.41,0,0,0,.78-6.29c0-4.19-3.65-.44-3.65-4.41.23-2.87.56-4.63,1.77-5.63,6.51-3.42,16.22-5.18,24.16-5.18,18.09,0,30.12,5,30.12,20.52,0,17.54-15.89,32-36.3,32-3.2,0-4.3-3.86-4.3-7.94,0-.44.22-.44,1-.44,13.9,0,22.95-7.51,22.95-21.52,0-9.92-6.29-13.34-16-13.34a33.8,33.8,0,0,0-5.07.66,12.1,12.1,0,0,1,1,5,32.42,32.42,0,0,1-.88,6.4c-3.09,14.12-6.62,27.14-9.38,41.26C679,430.46,678.11,436.53,678.11,440.5Z" transform="translate(-274.12 -133.6)"/><path d="M747.62,387.31a91.23,91.23,0,0,0,2-13.64c.11-2.37.44-5.19-2.54-6.43a1.59,1.59,0,0,1-1.1-1.13c-.33-1.12-.33-1.12.33-1.58a30.23,30.23,0,0,1,14-4.28c2.1,0,4.53.56,5.85,2.26s1.43,4.39,1.1,6.42c-4.3,18.72-8.93,37.32-12.57,56.15A67.52,67.52,0,0,0,753,436.7a14.71,14.71,0,0,0,2.54,8.23c0,2.48-10.37,4.4-13.35,4.4-4.85,0-6.29-2.71-6.29-7.22a52.5,52.5,0,0,1,1.66-10.82C740.78,418.21,744.86,400.5,747.62,387.31Z" transform="translate(-274.12 -133.6)"/><path d="M815,437.74H823c5.63,0,11.37-1.21,16.22-5.29.11,1.43.11,2.86.11,4.08,0,7.72-3.64,11.91-10.92,12.35-2.32.12-4.63.23-6.84.23-8.6,0-16.77-.89-25.26-1.33-1.44-.11-2.87-.11-4.19-.11a73.16,73.16,0,0,0-16.44,1.77c-2-.89-3.2-3.09-3.75-5.19a5.72,5.72,0,0,1,1.1-5.4c1.65-2.21,48.21-56.6,54.94-65.43-5.85.12-11.69.23-17.54.23-2.76,0-8.39.44-11.14.44-6.51,0-10.93-3.86-11.15-12.14a8.55,8.55,0,0,1,.22-1.76c4.64.77,9.16,2.64,17.88,2.64a334.41,334.41,0,0,0,43.24-2.75,17.78,17.78,0,0,1,.77,4.74c0,4.52-4.08,9.05-10.37,16-2.09,2.31-46.66,54.39-48.54,56.59C799.14,437.63,807.08,437.74,815,437.74Z" transform="translate(-274.12 -133.6)"/><path d="M893.9,437.74h7.94c5.63,0,11.37-1.21,16.22-5.29.11,1.43.11,2.86.11,4.08,0,7.72-3.64,11.91-10.92,12.35-2.32.12-4.63.23-6.84.23-8.61,0-16.77-.89-25.26-1.33-1.44-.11-2.87-.11-4.2-.11a73.13,73.13,0,0,0-16.43,1.77c-2-.89-3.2-3.09-3.76-5.19a5.72,5.72,0,0,1,1.11-5.4c1.65-2.21,48.21-56.6,54.94-65.43-5.85.12-11.7.23-17.54.23-2.76,0-8.39.44-11.15.44-6.5,0-10.92-3.86-11.14-12.14a8.55,8.55,0,0,1,.22-1.76c4.64.77,9.16,2.64,17.88,2.64a334.41,334.41,0,0,0,43.24-2.75,17.78,17.78,0,0,1,.77,4.74c0,4.52-4.08,9.05-10.37,16-2.09,2.31-46.66,54.39-48.54,56.59C878,437.63,886,437.74,893.9,437.74Z" transform="translate(-274.12 -133.6)"/><path d="M931.08,449.22c-3.64,0-5.63-1.34-5.63-3.9a13,13,0,0,1,1.77-5.79c8-14.81,18.75-32.95,29.23-50.66,4.31-7.34,9.38-15.58,14.34-24.71a19.16,19.16,0,0,1,13.79-3.79c3.09.34,4.75,3,5,7.91,0,2.56,0,5.68.11,9.24,0,3.78.33,7,.33,9.8.33,3.89,1.32,24.71,1.55,28.38a131.18,131.18,0,0,0,2.31,18.6c1.11,5.23,2.65,8.9,5.19,11.24a20.5,20.5,0,0,1-13.68,3.68c-3.86-.34-6.4-3.46-7.39-10.92-1-6.12-1.22-12.13-1.77-18.25a7.58,7.58,0,0,1-5.07,1.55q-9.11.34-17.88.34a10.55,10.55,0,0,0-5.18,5.12,72.72,72.72,0,0,0-4.63,8.91c-1.44,3.56-3,7.57-2.1,11.35A29.28,29.28,0,0,1,931.08,449.22Zm44.79-37.08c-.11-9.24-.88-27.16-1.54-35.85-5.08,9.47-12,22.27-19.31,36.19h18.09A18.91,18.91,0,0,0,975.87,412.14Z" transform="translate(-274.12 -133.6)"/><path class="cls-1" d="M1006.57,478.31a3.91,3.91,0,0,0-3.91-3.91h-.39c-.25-.06-164.18-.5-245.9-.12-4.31,0-10.24,4.29-12.66,8.28-22.18,36.48-43.9,73.27-65.46,110.13-11.53,19.73-22.62,39.72-34.56,60.86a3.92,3.92,0,0,1-6.7.18c-2.16-3.37-4.1-6.4-5.89-9.52-30.38-52.87-60.52-105.89-91.38-158.46-3.11-5.29-10.59-11.3-16.09-11.35-81.7-.58-240.21,0-245.13,0a3.64,3.64,0,0,0-.48,0h0a3.91,3.91,0,0,0-3.9,3.91v13h24.79c52.72,0,105.45.32,158.17,0h53.18a5.06,5.06,0,0,1,.68.05c10.21,1.63,16.3,7.13,22.19,17.64,33.79,60.44,68.63,120.3,104.15,182.1a3.92,3.92,0,0,0,6.57.35,30,30,0,0,0,1.82-2.73c34-59.24,68.47-118.25,101.71-177.94,6.3-11.35,12.84-17.58,24-19.41a3.93,3.93,0,0,1,.69-.06h62.49c34.23.16,68.47.05,102.71,0h37.41q8.28,0,16.57.05c1.06,0,2.1,0,3.08-.05h8.32a3.91,3.91,0,0,0,3.91-3.9Z" transform="translate(-274.12 -133.6)"/><path class="cls-2" d="M957.73,321.92c-28.09-3.35-60.42-6.45-77.55-7.35a4.5,4.5,0,0,1-3.49-7c20.71-30.94,39.45-58.93,58.09-86.79a4.5,4.5,0,0,0-1.29-6.29C765.85,106.71,516,106.56,348.14,214.56a4.5,4.5,0,0,0-1.28,6.29c18.76,28,37.63,56.2,58.38,87.19a4.49,4.49,0,0,1-3.64,7c-25.49.55-58.24,3.42-84.63,6.67-5.6.69-5.08,9,.56,9H433.75a4.5,4.5,0,0,0,3.75-7c-19-28.59-54.39-82.26-64.51-97.68a4.51,4.51,0,0,1,1.51-6.38c167.65-96.14,391.29-85.22,532.57,1a4.5,4.5,0,0,1,1.43,6.26c-1.29,2-2.63,4.13-4,6.37a4.52,4.52,0,0,1-5.63,1.71c-22.34-9.86-43-19.83-64.29-27.89-104-39.27-210.32-45.89-318.63-21.23-5.85,1.33,118.83-8.75,186.63-.53,66.19,8,129,26.65,188.6,59.12a4.52,4.52,0,0,1,1.57,6.47l-48.67,73a4.51,4.51,0,0,0,3.74,7H957.2C962.86,330.89,963.35,322.59,957.73,321.92Z" transform="translate(-274.12 -133.6)"/><path class="cls-3" d="M396.34,359c1-.23,1.68-.38,2.37-.56a11.39,11.39,0,0,1,9.89,1.82,5.11,5.11,0,0,1,2,4.65,4.32,4.32,0,0,0-.92-4.4C407.06,357.4,400.54,356.55,396.34,359Z" transform="translate(-274.12 -133.6)"/><path class="cls-3" d="M395.74,361c-1.81,1.83-1.75,4,.24,5.62a10.13,10.13,0,0,0,5.84,2.14,42.39,42.39,0,0,0,4.35-1.22c3.16-1.27,3.88-4.51,1.58-6.71C404.94,358.15,398.49,358.23,395.74,361Z" transform="translate(-274.12 -133.6)"/><path class="cls-3" d="M377.43,375.75A13.16,13.16,0,0,1,380.3,377a5.1,5.1,0,0,1,1.8,5.59,56.85,56.85,0,0,1-2.26,6.29c2.36-2,3.55-6.09,2.84-9.3A4.72,4.72,0,0,0,377.43,375.75Z" transform="translate(-274.12 -133.6)"/><path class="cls-3" d="M375.79,377.74a9.37,9.37,0,0,0-5.43,9.41,3.86,3.86,0,0,0,5,3.17c2.8-.66,5.84-4.36,5.93-8.17C381.4,378.66,378.77,376.54,375.79,377.74Z" transform="translate(-274.12 -133.6)"/><path class="cls-4" d="M442,365.23c-.27-.35-.55-.7-.84-1-7.81-9.07-17.68-14.95-29-18.64a73.05,73.05,0,0,0-19.65-3.4,28,28,0,0,0-6.18.56c-2.65.48-3.95,2.16-4.2,4.79a3.48,3.48,0,0,1-.68,1.54c-3.09,4.36-6.51,8.51-9.26,13.08a108.63,108.63,0,0,0-12,28.91,84.1,84.1,0,0,0-2.84,20.09c.11,1.67.16,3.36.34,5,.07.56.47,1.53.73,1.53a2.8,2.8,0,0,0,1.88-.73c1.59-1.67,3-3.47,4.57-5.2a112.12,112.12,0,0,1,30.91-24.44c6.33-3.4,12.92-6.37,19.56-9.14,6.33-2.63,12.89-4.73,19.34-7.08,2.16-.79,4.34-1.56,6.45-2.47C442.91,367.86,443.12,366.71,442,365.23Zm-62.16,23.66a56.85,56.85,0,0,0,2.26-6.29,5.1,5.1,0,0,0-1.8-5.59,13.16,13.16,0,0,0-2.87-1.26,4.72,4.72,0,0,1,5.25,3.84C383.39,382.8,382.2,386.88,379.84,388.89Zm-12.35-9a93.76,93.76,0,0,1,13.85-24.64Zm2.87,7.3a9.37,9.37,0,0,1,5.43-9.41c3-1.2,5.61.92,5.47,4.41-.09,3.81-3.13,7.51-5.93,8.17A3.86,3.86,0,0,1,370.36,387.15ZM395.74,361c2.75-2.77,9.2-2.85,12-.17,2.3,2.2,1.58,5.44-1.58,6.71a42.39,42.39,0,0,1-4.35,1.22,10.13,10.13,0,0,1-5.84-2.14C394,365,393.93,362.83,395.74,361Zm12.86-.77a11.39,11.39,0,0,0-9.89-1.82c-.69.18-1.4.33-2.37.56,4.2-2.42,10.72-1.57,13.36,1.51a4.32,4.32,0,0,1,.92,4.4A5.11,5.11,0,0,0,408.6,360.23Z" transform="translate(-274.12 -133.6)"/></svg>